<svg width="18" height="16" viewBox="0 0 18 16" fill="none" xmlns="http://www.w3.org/2000/svg">
<path fill-rule="evenodd" clip-rule="evenodd" d="M4.97427 0C2.45356 0 0.379288 1.93337 0.0683962 4.41118C0.0248713 4.61502 0 4.82646 0 5.0645C0 7.95759 2.17127 10.5696 4.24554 12.508C6.31483 14.4515 8.38413 15.7329 8.38413 15.7329L8.70497 15.9354L9.02581 15.7329C9.02581 15.7329 11.0951 14.4515 13.1694 12.508C15.2387 10.5696 17.4099 7.95759 17.4099 5.0645C17.4099 4.82646 17.3851 4.61882 17.3465 4.42131C17.0306 1.93337 14.9614 0 12.4357 0C10.8912 0 9.61277 0.820448 8.70497 1.94856C7.79716 0.820448 6.51878 0 4.97427 0ZM4.97427 1.26612C6.34468 1.26612 7.51985 2.0182 8.17023 3.13619L8.70497 4.0554L9.2397 3.13619C9.89009 2.0182 11.0653 1.26612 12.4357 1.26612C14.3445 1.26612 15.8891 2.71584 16.1179 4.59983L16.1278 4.64921C16.1514 4.76822 16.1664 4.90117 16.1664 5.0645C16.1664 7.28021 14.296 9.73396 12.3237 11.5787C10.5168 13.274 8.99099 14.2186 8.70497 14.4022C8.41895 14.2186 6.89309 13.274 5.08121 11.5787C3.11389 9.73396 1.24357 7.28021 1.24357 5.0645C1.24357 4.8961 1.25849 4.76316 1.28212 4.64921L1.29207 4.61882V4.5897C1.52586 2.71584 3.06539 1.26612 4.97427 1.26612Z" fill="black"/>
</svg>
