<svg width="18" height="16" viewBox="0 0 18 16" fill="none" xmlns="http://www.w3.org/2000/svg">
<mask id="mask0_0_8" style="mask-type:alpha" maskUnits="userSpaceOnUse" x="0" y="0" width="18" height="16">
<path fill-rule="evenodd" clip-rule="evenodd" d="M0 0H17.1569V15.9262H0V0Z" fill="white"/>
</mask>
<g mask="url(#mask0_0_8)">
<path fill-rule="evenodd" clip-rule="evenodd" d="M14.1538 0C12.4615 0 11.0769 1.38462 11.0769 3.07692C11.0769 3.28862 11.1015 3.49046 11.1397 3.69231L5.56308 6.20185C4.99938 5.43262 4.096 4.92308 3.07692 4.92308C1.38462 4.92308 0 6.30769 0 8C0 9.69231 1.38462 11.0769 3.07692 11.0769C4.10092 11.0769 5.01415 10.5625 5.57169 9.78338L11.1532 12.2646C11.1052 12.4763 11.0769 12.6966 11.0769 12.9231C11.0769 14.6154 12.4615 16 14.1538 16C15.8462 16 17.2308 14.6154 17.2308 12.9231C17.2308 11.2308 15.8462 9.84615 14.1538 9.84615C13.1298 9.84615 12.2166 10.3606 11.6591 11.1397L6.07754 8.66338C6.12554 8.44677 6.15385 8.22646 6.15385 8C6.15385 7.76862 6.12554 7.54338 6.07754 7.32677L11.6246 4.81723C12.1822 5.62462 13.1102 6.15385 14.1538 6.15385C15.8462 6.15385 17.2308 4.76923 17.2308 3.07692C17.2308 1.38462 15.8462 0 14.1538 0ZM14.1538 1.23077C15.1828 1.23077 16 2.048 16 3.07692C16 4.10585 15.1828 4.92308 14.1538 4.92308C13.1249 4.92308 12.3077 4.10585 12.3077 3.07692C12.3077 2.048 13.1249 1.23077 14.1538 1.23077ZM3.07692 6.15385C4.10585 6.15385 4.92308 6.97108 4.92308 8C4.92308 9.02892 4.10585 9.84615 3.07692 9.84615C2.048 9.84615 1.23077 9.02892 1.23077 8C1.23077 6.97108 2.048 6.15385 3.07692 6.15385ZM14.1538 11.0769C15.1828 11.0769 16 11.8942 16 12.9231C16 13.952 15.1828 14.7692 14.1538 14.7692C13.1249 14.7692 12.3077 13.952 12.3077 12.9231C12.3077 11.8942 13.1249 11.0769 14.1538 11.0769Z" fill="black"/>
</g>
</svg>
