<svg width="12" height="16" viewBox="0 0 12 16" fill="none" xmlns="http://www.w3.org/2000/svg">
<mask id="mask0_0_25" style="mask-type:alpha" maskUnits="userSpaceOnUse" x="0" y="0" width="12" height="16">
<path fill-rule="evenodd" clip-rule="evenodd" d="M0 0H11.7766V15.5787H0V0Z" fill="white"/>
</mask>
<g mask="url(#mask0_0_25)">
<path fill-rule="evenodd" clip-rule="evenodd" d="M5.92384 0C5.27577 0 4.73907 0.504081 4.73907 1.11276V2.38242C2.70246 2.88205 1.18477 4.6124 1.18477 6.67657V11.1098C1.18477 11.1098 1.16581 11.4192 1.00942 11.7063C0.851848 11.9967 0.662285 12.2404 0 12.2404V13.3531H11.8477V12.2404C11.1439 12.2404 10.9638 11.9967 10.8157 11.7185C10.6677 11.4359 10.6629 11.1321 10.6629 11.1321V6.67657C10.6629 4.6124 9.14522 2.88205 7.10861 2.38242V1.11276C7.10861 0.504081 6.57191 0 5.92384 0ZM5.92384 13.3531C5.27103 13.3531 4.73907 13.8528 4.73907 14.4659C4.73907 15.079 5.27103 15.5787 5.92384 15.5787C6.57665 15.5787 7.10861 15.079 7.10861 14.4659C7.10861 13.8528 6.57665 13.3531 5.92384 13.3531ZM5.92384 3.33828C7.89529 3.33828 9.47814 4.82493 9.47814 6.67657V11.1232C9.47814 11.1232 9.46393 11.654 9.75538 12.2059C9.76012 12.2181 9.7696 12.227 9.77434 12.2404H2.04609C2.04965 12.2315 2.05913 12.2226 2.06387 12.2181C2.36006 11.6706 2.36954 11.1454 2.36954 11.1454V6.67657C2.36954 4.82493 3.95239 3.33828 5.92384 3.33828Z" fill="black"/>
</g>
</svg>
